<svg width="155" height="35" viewBox="0 0 155 35" fill="none" xmlns="http://www.w3.org/2000/svg">
<circle cx="17.5" cy="17.5" r="15.5859" fill="#F5F5F5" stroke="black" stroke-width="3.82812"/>
<path d="M15.4169 19.9609L16.2373 21.6016H11.1065L11.9268 19.9609H15.4169Z" fill="#21CBD3" stroke="#21CBD3" stroke-width="0.546875"/>
<path d="M6.9914 24.8828L14.1196 9.57031H15.9557L22.82 24.8828H20.6822L15.287 13.2831L15.0451 12.763L14.7934 13.2784L9.12611 24.8828H6.9914Z" fill="#21CBD3" stroke="#21CBD3" stroke-width="0.546875"/>
<path d="M25.4297 18.3203H20.9084L19.8901 16.1328H25.4297V18.3203ZM22.6905 22.1484H27.0703V24.8828H23.9634L22.6905 22.1484ZM19.4141 15.1102L16.8352 9.57031H27.0703V12.3047H19.6875H19.4141V12.5781V15.1102Z" fill="#031727" stroke="#031727" stroke-width="0.546875"/>
<path d="M16.4062 9.57031H16.1328L23.2422 24.8828H23.5156L16.4062 9.57031Z" stroke="#28F4FA" stroke-width="0.546875"/>
<path d="M44.84 8.46H47.384L54.008 25.5H51.176L49.376 20.868H42.8L41.024 25.5H38.168L44.84 8.46ZM48.848 18.876L46.112 11.412L43.28 18.876H48.848ZM56.1153 25.5V8.46H63.5313C64.2993 8.46 65.0033 8.62 65.6433 8.94C66.2833 9.26 66.8353 9.684 67.2993 10.212C67.7793 10.74 68.1473 11.332 68.4033 11.988C68.6753 12.644 68.8113 13.316 68.8113 14.004C68.8113 14.756 68.6753 15.476 68.4033 16.164C68.1313 16.852 67.7393 17.444 67.2273 17.94C66.7313 18.436 66.1473 18.796 65.4753 19.02L69.4833 25.5H66.4593L62.7633 19.572H58.8033V25.5H56.1153ZM58.8033 17.196H63.5073C64.0033 17.196 64.4433 17.052 64.8273 16.764C65.2113 16.476 65.5153 16.092 65.7393 15.612C65.9633 15.116 66.0753 14.58 66.0753 14.004C66.0753 13.412 65.9473 12.884 65.6913 12.42C65.4353 11.94 65.0993 11.556 64.6833 11.268C64.2833 10.98 63.8433 10.836 63.3633 10.836H58.8033V17.196ZM84.3224 10.836H78.6584V25.5H75.9464V10.836H70.2584V8.46H84.3224V10.836ZM86.6075 25.5V8.46H89.2955V25.5H86.6075ZM95.8346 13.452V25.5H93.1466V8.46H95.3546L105.003 20.772V8.484H107.715V25.5H105.363L95.8346 13.452ZM123.233 23.124V25.5H111.545V8.46H123.017V10.836H114.233V15.684H121.841V17.916H114.233V23.124H123.233ZM137.694 23.124V25.5H126.006V8.46H137.478V10.836H128.694V15.684H136.302V17.916H128.694V23.124H137.694ZM140.467 25.5V8.46H147.883C148.651 8.46 149.355 8.62 149.995 8.94C150.635 9.26 151.187 9.684 151.651 10.212C152.131 10.74 152.499 11.332 152.755 11.988C153.027 12.644 153.163 13.316 153.163 14.004C153.163 14.756 153.027 15.476 152.755 16.164C152.483 16.852 152.091 17.444 151.579 17.94C151.083 18.436 150.499 18.796 149.827 19.02L153.835 25.5H150.811L147.115 19.572H143.155V25.5H140.467ZM143.155 17.196H147.859C148.355 17.196 148.795 17.052 149.179 16.764C149.563 16.476 149.867 16.092 150.091 15.612C150.315 15.116 150.427 14.58 150.427 14.004C150.427 13.412 150.299 12.884 150.043 12.42C149.787 11.94 149.451 11.556 149.035 11.268C148.635 10.98 148.195 10.836 147.715 10.836H143.155V17.196Z" fill="black"/>
</svg>
